<svg width="1814" height="1080" viewBox="0 0 1814 1080" fill="none" xmlns="http://www.w3.org/2000/svg">
<path d="M297.218 1070.05C-3.73072 1022.52 -41.9217 814.894 33.121 684.206C67.9465 629.308 109.546 579.013 156.939 534.51C239.527 461.135 330.822 398.193 428.769 347.097C599.186 254.849 785.807 196.363 978.391 174.849C1034.85 167.555 1092.07 168.355 1148.31 177.225C1181.53 181.708 1213.54 192.767 1242.44 209.757C1264.5 221.599 1281.53 241.022 1290.38 264.44C1299.24 287.857 1299.32 313.687 1290.62 337.161C1276.33 390.699 1241.72 436.549 1194.14 464.954C1154.89 490.367 1111.9 509.478 1066.74 521.592C1060.77 523.273 1054.62 524.273 1048.42 524.573C1035.25 525.264 1031.92 520.814 1036.71 508.329C1039.51 501.76 1042.76 495.394 1046.43 489.277C1057.13 472.129 1064.81 453.281 1069.16 433.545C1072.53 422.163 1073.3 410.171 1071.43 398.45C1069.55 386.729 1065.08 375.577 1058.33 365.813C1051.58 356.049 1042.72 347.923 1032.42 342.03C1022.11 336.137 1010.62 332.628 998.782 331.76C957.632 324.937 915.639 324.937 874.489 331.76C766.511 347.728 661.673 380.39 563.734 428.577C498.638 458.124 437.528 495.762 381.851 540.601L377.185 544.273C378.309 537.145 379.216 531.615 380.08 526.042C381.109 521.55 380.948 516.868 379.614 512.458C378.279 508.048 375.817 504.062 372.471 500.894C369.125 497.727 365.01 495.487 360.533 494.397C356.056 493.306 351.372 493.403 346.944 494.677C337.508 496.784 328.582 500.734 320.677 506.298C257.192 545.67 199.741 594.025 150.113 649.86C118.676 685.407 97.1848 728.627 87.8153 775.147C81.7924 808.046 84.1092 841.929 94.554 873.701C104.999 905.474 123.239 934.122 147.608 957.03C189.253 998.979 242.013 1028.16 299.68 1041.14C338.031 1050.5 377.019 1057.01 416.327 1060.63C463.874 1065.02 511.663 1066.22 559.37 1064.22C585.767 1063.09 647.892 1061.28 647.892 1061.28C647.892 1061.28 620.07 1066.25 606.677 1068.32C549.533 1075.81 491.975 1079.71 434.342 1079.98C388.445 1080.26 342.596 1076.94 297.218 1070.05ZM502.429 1050.17C455.718 1049.65 409.096 1045.96 362.885 1039.11C335.619 1034.9 308.671 1028.84 282.226 1020.97C247.473 1012.13 214.959 996.106 186.786 973.923C158.612 951.74 135.404 923.893 118.662 892.183C104.808 864.706 98.0337 834.204 98.9541 803.446C99.8745 772.688 108.46 742.646 123.933 716.046C148.016 671.361 180.665 631.857 220.015 599.788C253.545 571.132 288.854 544.624 325.731 520.426C332.56 515.525 340.192 511.855 348.283 509.582C360.812 506.514 368.113 513.081 365.218 525.48C362.324 537.879 358.133 550.538 354.547 563.066C353.011 566.833 350.544 570.148 347.376 572.701C319.684 599.591 297.907 631.962 283.436 667.746C275.875 685.423 271.877 704.418 271.674 723.643C271.47 742.868 275.063 761.944 282.248 779.777C289.432 797.61 300.067 813.849 313.541 827.563C327.016 841.278 343.065 852.197 360.769 859.695C410.97 883.499 462.338 904.582 513.748 925.665C554.877 942.557 596.179 959.19 637.48 975.78C679.992 992.845 722.589 1009.69 767.088 1027.28C724.922 1034.92 684.355 1040.24 643.658 1044.21C603.696 1048.14 563.561 1050.52 523.469 1050.52C516.384 1050.43 509.371 1050.32 502.429 1050.17ZM712.949 1026.15L656.237 996.517L583.322 961.334L438.647 894.484C530.88 917.897 551.492 912.745 551.492 912.745H592.715C635.776 913.015 680.022 907.15 722.719 901.558C780.461 892.995 837.723 881.459 894.276 866.996C979.169 846.043 1062.77 820.812 1146.15 794.373C1195.48 778.69 1245.51 764.865 1294.07 747.109C1297.73 745.399 1301.72 744.513 1305.76 744.513C1309.8 744.513 1313.79 745.399 1317.44 747.109C1319.01 747.616 1320.44 748.46 1321.64 749.581C1322.84 750.702 1323.78 752.073 1324.4 753.597C1325.01 755.122 1325.28 756.762 1325.19 758.403C1325.1 760.044 1324.66 761.645 1323.88 763.094C1320.08 771.981 1314.46 779.973 1307.38 786.553C1280.77 811.384 1251.35 833.017 1219.72 851.011C1119.01 912.164 1011.33 961.015 898.985 996.517C870.845 1006.46 841.95 1014.12 812.58 1019.41C811.651 1019.56 768.028 1027.28 767.088 1027.28C766.209 1027.14 712.949 1026.15 712.949 1026.15ZM1077.02 941.002C1120.26 921.553 1162.36 899.672 1203.13 875.463C1235.64 856.964 1266.7 836.038 1296.06 812.863C1309.68 802.606 1321.21 789.832 1330.02 775.234C1333.6 770.487 1335.54 764.701 1335.54 758.752C1335.54 752.803 1333.6 747.017 1330.02 742.27C1325.97 736.898 1320.38 732.884 1314 730.762C1307.62 728.64 1300.74 728.51 1294.29 730.39C1269.4 737.648 1245.04 746.807 1220.24 754.41C1111.58 787.59 1003.88 824.182 893.325 850.968C806.237 873.263 717.175 886.981 627.414 891.924C581.031 894.401 534.516 892.245 488.561 885.486C474.938 883.326 461.358 880.59 447.821 877.278C413.666 869.625 381.107 856.072 351.61 837.229C336.755 828.993 323.684 817.889 313.154 804.562C302.624 791.235 294.845 775.95 290.267 759.594C285.69 743.237 284.405 726.134 286.488 709.278C288.571 692.421 293.981 676.146 302.402 661.395C312.618 639.214 326.297 618.797 342.926 600.912C340.261 618.831 338.659 636.893 338.13 655.001C335.933 684.924 344.05 714.697 361.131 739.363C378.212 764.029 403.226 782.101 432.009 790.571C482.715 808.403 536.078 817.504 589.828 817.486C652.507 818.432 715.091 812.258 776.376 799.081C873.17 778.815 967.463 748.046 1057.58 707.319C1146.11 669.371 1228.91 619.247 1303.58 558.401C1356.69 515.586 1402.36 464.291 1438.76 406.587C1459.97 374.281 1471.76 336.699 1472.8 298.063C1472.96 279.929 1469.17 261.978 1461.72 245.448C1454.26 228.919 1443.3 214.206 1429.6 202.326C1402.57 178.698 1370.59 161.413 1336.02 151.736C1251.01 126.475 1162.06 117.116 1073.65 124.129C962.97 131.679 853.218 149.409 745.789 177.096C690.346 190.978 635.623 207.424 581.62 226.433C489.812 259.503 401.068 300.528 316.4 349.041C308.105 353.75 299.507 358.028 291.04 362.477C309.72 344.779 329.519 328.299 350.314 313.14C417.641 269.204 488.289 230.579 561.617 197.617C710.019 130.706 864.289 77.6583 1022.46 39.1501C1098.56 20.3949 1176.11 8.11044 1254.28 2.42802C1293.01 -0.452996 1331.9 -0.770507 1370.67 1.47757C1436.71 4.6505 1502.28 14.3462 1566.42 30.4232C1603.45 39.9764 1639.39 53.3096 1673.69 70.2127C1710.37 87.485 1742.9 112.445 1769.08 143.398C1800.04 181.374 1815.94 229.415 1813.75 278.362C1809.87 342.18 1791.39 404.256 1759.75 459.813C1622.37 695.741 1139.75 941.131 1078.88 941.131L1077.02 941.002Z" fill="white"/>
</svg>
