<?xml version="1.0" standalone="no"?>
<!DOCTYPE svg PUBLIC "-//W3C//DTD SVG 20010904//EN"
 "http://www.w3.org/TR/2001/REC-SVG-20010904/DTD/svg10.dtd">
<svg version="1.0" xmlns="http://www.w3.org/2000/svg"
 width="1080.000000pt" height="1080.000000pt" viewBox="0 0 1080.000000 1080.000000"
 preserveAspectRatio="xMidYMid meet">
<metadata>
Created by potrace 1.14, written by Peter Selinger 2001-2017
</metadata>
<g transform="translate(0.000000,1080.000000) scale(0.100000,-0.100000)"
fill="#000000" stroke="none">
<path d="M5110 10794 c-25 -2 -106 -8 -180 -14 -1092 -89 -2158 -532 -3020
-1258 -163 -137 -518 -494 -647 -650 -654 -788 -1068 -1712 -1207 -2693 -43
-305 -51 -418 -51 -779 0 -349 8 -468 46 -745 139 -1008 562 -1955 1227 -2745
137 -163 494 -518 650 -647 788 -654 1712 -1068 2693 -1207 305 -43 418 -51
779 -51 349 0 468 8 745 46 1008 139 1955 562 2745 1227 163 137 518 494 647
650 654 788 1068 1712 1207 2693 43 305 51 418 51 779 0 349 -8 468 -46 745
-139 1008 -562 1955 -1227 2745 -137 163 -494 518 -650 647 -854 708 -1835
1122 -2937 1238 -140 15 -715 28 -825 19z m2295 -3368 c848 -104 1324 -389
1420 -851 19 -93 19 -183 0 -310 -56 -373 -202 -646 -519 -973 -413 -426
-1091 -893 -1789 -1232 -336 -163 -580 -242 -287 -93 201 103 405 223 534 314
238 170 306 281 222 365 -28 28 -41 34 -78 34 -25 0 -78 -11 -119 -25 -131
-46 -868 -275 -1061 -330 -636 -184 -1085 -260 -1538 -259 -415 0 -670 60
-916 215 -152 96 -234 242 -234 420 0 93 19 159 75 265 40 77 124 198 131 191
2 -2 -1 -55 -7 -119 -13 -151 -1 -227 51 -334 66 -136 158 -208 342 -268 188
-62 296 -78 547 -84 340 -7 535 16 906 108 944 232 1796 724 2211 1276 162
215 222 341 243 510 31 254 -89 440 -371 574 -129 61 -366 122 -588 150 -426
54 -1125 -20 -1795 -190 -593 -151 -1067 -339 -1614 -641 -52 -29 -91 -47 -87
-41 18 30 217 177 341 253 344 210 646 356 1125 544 421 165 814 290 1263 400
310 77 497 107 912 149 91 9 557 -3 680 -18z m-1120 -646 c148 -21 225 -44
338 -102 138 -69 220 -169 247 -301 14 -69 7 -134 -26 -235 -81 -247 -224
-397 -522 -548 -198 -100 -430 -159 -440 -112 -3 16 2 28 71 163 93 184 92
325 -3 445 -145 183 -729 153 -1385 -70 -401 -137 -870 -382 -1119 -585 l-59
-48 7 54 c8 66 -6 97 -55 123 -33 18 -40 18 -84 6 -105 -30 -415 -261 -613
-460 -183 -183 -254 -287 -318 -465 -68 -192 -69 -364 -1 -543 42 -114 93
-189 192 -288 167 -167 359 -268 625 -329 275 -62 477 -79 898 -73 344 4 365
0 137 -26 -815 -95 -1472 8 -1847 289 -409 307 -494 818 -207 1244 322 476
823 885 1534 1252 642 331 1299 533 1995 613 247 29 414 28 635 -4z m-2957
-1272 c16 -16 15 -29 -10 -121 -19 -74 -27 -87 -92 -157 -131 -143 -230 -345
-242 -492 -12 -155 48 -317 161 -431 52 -53 85 -75 177 -120 356 -172 543
-215 888 -203 455 16 936 106 1590 296 244 71 974 298 1033 321 82 33 147 21
147 -27 0 -140 -595 -513 -1215 -762 -362 -145 -568 -205 -905 -261 -453 -76
-799 -101 -1129 -82 -525 30 -835 110 -1049 271 -159 119 -266 264 -324 436
-20 59 -23 89 -23 204 0 115 4 146 23 205 53 157 192 366 338 505 96 91 262
225 392 316 157 109 210 132 240 102z"/>
</g>
</svg>
